<?xml version="1.0" encoding="utf-8"?>
<!-- Generator: Adobe Illustrator 24.1.2, SVG Export Plug-In . SVG Version: 6.00 Build 0)  -->
<svg version="1.1" id="Layer_1" xmlns="http://www.w3.org/2000/svg" xmlns:xlink="http://www.w3.org/1999/xlink" x="0px" y="0px"
	 viewBox="0 0 48 48" style="enable-background:new 0 0 48 48;" xml:space="preserve">
<style type="text/css">
	.st0{fill:#FFFFFF;}
</style>
<g>
	<g>
		<path class="st0" d="M40.3,19.9c-0.6-2.8-1.9-5-4.4-6.7c-1.2-0.8-2.3-1.7-3-2.7c-1.6-2-3.7-3.1-6.1-3.4c-2.8-0.3-5.5-0.5-8.1,0.8
			c-4,1.9-6.7,5-8.1,9.2c-0.1,0.3-0.2,0.5-0.3,0.9c-0.4-1.6,0-3,0.2-4.5c-0.2,0.1-0.4,0.3-0.5,0.5c-0.6,1.2-1.5,2.4-1.9,3.7
			c-1.9,5.2-1.8,10.1,2.3,14.4c0.6,0.8,1.2,1.6,1.7,2.4c3.5,5.8,11.6,8.2,17.7,5c3.8-1.9,6.4-4.9,7.8-8.9c0.1-0.2,0.2-0.5,0.4-0.8
			c0.1,0,0.2,0.1,0.3,0.1c-0.1,0.9-0.1,1.8-0.2,3c0.2-0.4,0.4-0.6,0.5-0.8C40.8,28.2,41.3,24.2,40.3,19.9z M23.8,36.7
			c-5.9-6.9-5.8-18.8,0-25.6C29.3,17,30.1,29.4,23.8,36.7z"/>
		<path class="st0" d="M12,36.6c-1.6-1.2-3.9-1.9-3.8-4.7C9.9,33.2,10.9,35,12,36.6z"/>
		<path class="st0" d="M37.1,12.7c-1.5-0.8-2.6-1.9-3.5-3.2C35.3,9.4,36.9,10.9,37.1,12.7z"/>
		<path class="st0" d="M12.2,10.9c0.9-2,2.4-3.1,4.4-3.7C15.1,8.4,13.7,9.7,12.2,10.9z"/>
	</g>
</g>
</svg>
