<?xml version="1.0" encoding="utf-8"?>
<!-- Generator: Adobe Illustrator 24.1.2, SVG Export Plug-In . SVG Version: 6.00 Build 0)  -->
<svg version="1.1" id="Layer_1" xmlns="http://www.w3.org/2000/svg" xmlns:xlink="http://www.w3.org/1999/xlink" x="0px" y="0px"
	 viewBox="0 0 48 48" style="enable-background:new 0 0 48 48;" xml:space="preserve">
<style type="text/css">
	.st0{fill:#FEFEFE;}
</style>
<g>
	<path class="st0" d="M38.5,28.8c0.8-0.8,0.8-1.8,0-3.1c1.7-0.5,3.4-1,5.2-1.5c-1.9-0.5-3.6-1-5.2-1.5c0.7-1.1,0.8-2.2,0.2-2.8
		c-0.9-0.9-1.9-1-3.2-0.3c-0.3-0.7-0.2-1.3,0.1-1.9c1.1-2.2,2.1-4.4,3.2-6.6c0.1-0.2,0.3-0.4,0.2-0.6c-0.6,0.2-1.1,0.5-1.6,0.8
		c-0.8,0.6-1.7,1.1-2.7,1.4c-0.9,0.3-1.7,0.7-2.6,1c-0.6,0.3-1.3,0.2-1.9-0.1c-0.4-0.2-0.8-0.5-1.2-0.6c-0.4-0.2-0.4-0.3-0.2-0.7
		c0.5-0.7,0.4-1.5-0.1-2.3c-0.5-0.7-1.2-0.9-2-0.8c-0.5,0.1-0.8,0.3-1.2,0.6c-0.5-1.7-1-3.4-1.5-5.3c-0.5,1.9-1,3.6-1.5,5.3
		c-0.2-0.1-0.4-0.3-0.6-0.4c-0.8-0.4-1.7-0.4-2.3,0.2C19,10.2,18.6,11.2,19,12c0.5,0.8,0.2,1.1-0.5,1.3c-0.3,0.1-0.5,0.3-0.8,0.4
		C17.2,14,16.6,14,16,13.8c-2.2-0.8-4.3-1.6-6.2-3c-0.3-0.2-0.5-0.4-0.9-0.3c0.1,0.1,0.2,0.2,0.2,0.3c1.2,2.4,2.3,4.8,3.5,7.3
		c0.3,0.5,0.3,1.1,0,1.6c-1.4-0.8-2.3-0.7-3.2,0.3c-0.6,0.6-0.5,1.7,0.2,2.8c-1.7,0.5-3.4,1-5.3,1.5c1.9,0.5,3.6,1,5.2,1.5
		c-0.8,1.4-0.8,2,0.2,3.1c0.4,0.4,0.9,0.4,1.4,0.5c0.6,0.1,1-0.2,1.4-0.5c0.3,0.7,0.1,1.3-0.1,1.9c-1,2.1-2.1,4.2-3.1,6.4
		c-0.1,0.2-0.4,0.4-0.3,0.8c0.5-0.2,0.9-0.4,1.3-0.6c1.7-1,3.4-2.1,5.3-2.6c0.7-0.2,1.3-0.3,1.9,0c0.6,0.3,1.3,0.7,1.9,1
		c-0.7,1.2-0.7,2.1,0,2.9c0.7,0.8,1.7,0.8,3.2,0c0.5,1.5,0.9,3.1,1.4,4.8c0.5-1.7,1-3.2,1.4-4.8c1.2,0.9,2.2,0.9,3,0.2
		c0.8-0.8,0.8-1.8,0.1-3c0.6-0.3,1.3-0.7,1.9-1c0.6-0.3,1.3-0.3,1.9,0c2,1,4.1,2,6.1,2.9c0.2,0.1,0.3,0.2,0.6,0.1
		c-0.2-0.4-0.3-0.7-0.5-1.1c-1-2-1.9-4-2.9-5.9c-0.3-0.6-0.5-1.2-0.1-1.9C36.7,29.6,37.7,29.6,38.5,28.8z M33.6,30.3
		c0.7,1.3,1.6,2.6,2,4.3c-0.9-0.5-1.9-0.8-2.7-1.3c-1.1-0.8-1.7-0.9-2.7-0.2c-1.5,1-3.1,1.7-4.9,1.9c-0.4,0-0.6,0.1-0.6,0.6
		c0,0.5,0,0.9,0,1.5c0.7-0.2,1.3-0.4,1.9-0.6c0.6-0.2,1.2-0.1,1.4,0.6c0.2,0.6,0,1-0.6,1.3c-0.7,0.3-1.1,0-1.3-0.7
		c-0.1-0.2-0.1-0.3-0.3-0.2c-0.4,0.2-1,0.1-1.3,0.8c-0.3,0.8-0.2,1.6-0.4,2.4c0,0.1,0,0.2-0.1,0.5c-0.2-1-0.4-1.8-0.5-2.7
		c-0.1-0.5-0.8-1.1-1.3-1.1c-0.2,0-0.2,0.2-0.2,0.3c-0.2,0.6-0.7,0.9-1.3,0.6C20,38,19.8,37.5,20,36.9c0.2-0.6,0.7-0.8,1.3-0.6
		c0.3,0.1,0.6,0.2,1,0.3c0.3,0.1,0.6,0.2,1,0.3c0-0.1,0.1-0.2,0.1-0.3c0.1-1.6,0.1-1.6-1.5-1.9c-1.6-0.3-3.1-1-4.4-2
		c-0.4-0.3-0.7-0.3-1.2-0.1c-1.1,0.6-2.1,1-3.2,1.6c-0.2,0.1-0.4,0.2-0.8,0.3c1-1.6,1.2-3.3,2.2-4.6c0.2-0.2,0.2-0.4,0-0.7
		c-0.6-1.2-1-2.5-1.1-3.8c0-0.3-0.2-0.4-0.5-0.4c-0.5,0-1,0-1.6,0c0.2,0.8,0.5,1.5,0.7,2.2c0.1,0.6-0.2,1-0.7,1.1
		c-0.5,0.2-0.9-0.1-1.2-0.5c-0.2-0.5-0.1-0.9,0.3-1.2c0.2-0.1,0.4-0.2,0.6-0.3c-0.1-1-0.6-1.5-1.6-1.6c-0.6,0-1.2-0.2-1.8-0.5
		c0.8-0.2,1.7-0.4,2.5-0.5c0.8-0.1,0.7-0.8,0.9-1.2c0.2-0.5-0.3-0.3-0.5-0.5c-0.4-0.3-0.6-0.8-0.4-1.2c0.2-0.5,0.6-0.7,1.1-0.6
		c0.5,0.1,0.8,0.5,0.8,1c0,0.6-0.3,1.2-0.5,1.8c-0.2,0.6,0,0.6,0.5,0.6c1.3,0,1.3,0,1.5-1.3c0.1-0.6,0.2-1.2,0.5-1.6
		c0.9-1.4,0.7-2.9,0.1-4.3c-0.1,0-0.1,0.1-0.1,0.2c0,0.1-0.1,0.1-0.1,0.3c-0.5-1-1-2-1.5-3c0.2-0.2,0.4,0.1,0.6,0.2
		c1.2,0.6,2.5,1.2,3.7,1.8c0.3,0.1,0.5,0.2,0.8,0c0.8-0.6,1.7-1.1,2.5-1.6c0.9-0.5,1.9-0.4,2.9-0.6c0.3-0.1,0.5-0.1,0.5-0.5
		c0-0.5,0-1,0-1.5c-0.7,0.2-1.3,0.4-1.9,0.6c-0.7,0.2-1.2,0-1.4-0.6c-0.2-0.6,0.1-1,0.6-1.2c0.5-0.3,1.1,0,1.3,0.7
		c0.1,0.2,0.1,0.4,0.3,0.2c0.4-0.2,1.1-0.1,1.2-0.8c0.2-0.9,0.3-1.8,0.6-2.9c0.3,1.1,0.5,2.1,0.7,3c0.1,0.6,0.7,0.5,1.1,0.7
		c0.4,0.2,0.3-0.2,0.4-0.4c0.3-0.5,0.8-0.7,1.3-0.5c0.7,0.2,0.5,0.9,0.4,1.3c-0.1,0.5-0.6,0.7-1.1,0.5c-0.7-0.2-1.4-0.4-2.1-0.6
		c0,0,0,0.1,0,0.1c0,0.6-0.2,1.2,0,1.7c0.2,0.5,1,0.2,1.5,0.4c0,0,0.1,0,0.1,0c1.4,0.7,3,0.9,4.2,2c0.3,0.3,0.6,0.3,0.9,0.1
		c1.4-0.7,2.7-1.3,4.2-2.1c-0.3,1-0.9,1.8-1.4,2.6c-0.4,0.7-0.4,1.7-0.9,2.4c-0.1,0.2,0.1,0.3,0.2,0.5c0.6,1.2,1.1,2.5,1.2,3.9
		c0,0.4,0.2,0.4,0.5,0.5c1.6,0.1,1.6,0.1,1.1-1.4c-0.1-0.3-0.2-0.6-0.3-1c0-0.5,0.2-0.9,0.7-1c0.5-0.1,0.9,0.1,1.1,0.6
		c0.2,0.5,0.1,1-0.4,1.3c-0.2,0.1-0.7,0-0.5,0.4c0.2,0.4,0.1,1.1,0.8,1.2c0.9,0.1,1.7,0.3,2.8,0.5c-0.9,0.3-1.6,0.4-2.4,0.5
		c-0.5,0.1-0.9,0.3-1,0.8c-0.1,0.5-0.2,0.7,0.3,0.9c0.5,0.2,0.6,0.8,0.4,1.3c-0.2,0.5-0.6,0.7-1.1,0.6c-0.5-0.2-0.8-0.6-0.7-1.1
		c0.2-0.7,0.4-1.4,0.6-2.1c-0.1,0-0.1-0.1-0.1-0.1c-0.6,0-1.2-0.2-1.7,0.1c-0.5,0.3-0.2,1-0.4,1.6c-0.2,0.8-0.4,1.7-0.9,2.4
		C33.3,29.4,33.4,29.8,33.6,30.3z"/>
	<path class="st0" d="M30.7,19.6c-0.7-0.1-1.1-0.6-1.1-1.2c-0.1-0.5-0.3-0.7-0.6-0.9c-3.6-2.5-6.7-1.9-10.1,0.1
		c-0.3,0.2-0.5,0.4-0.5,0.8c0,0.5-0.4,1.1-0.9,1.2c-0.6,0.1-0.8,0.5-1.1,1c-1,1.9-1,4-0.8,6.1c0.1,0.2,0.3,0.3,0.4,0.5
		c0.3,0.7,0.5,1.5,1.5,1.6c0.6,0.1,0.9,0.7,0.8,1.3c0,0.5,0.2,0.7,0.5,0.9c3.3,2.4,6.9,2.1,10.1,0c0.3-0.2,0.5-0.5,0.5-0.9
		c0-0.7,0.4-1.3,1.2-1.4c0.4-0.1,0.5-0.3,0.7-0.6c0.6-0.9,0.5-2,0.6-3c0.2-1.7,0.1-3.4-0.8-4.9C31.2,19.9,31.1,19.7,30.7,19.6z
		 M28.5,24.7c-0.8,1-1.8,1.7-2.8,2.5c-0.6,0.5-0.7,1.2-1.3,1.7c-0.4,0.3-0.6,0.3-1,0c-0.6-0.5-1-1-1.5-1.6c-0.7-0.9-1.5-1.8-2.4-2.6
		c-0.4-0.4-0.3-0.6,0-0.9c0.6-0.6,1.3-0.9,1.7-1.7c0.5-1,1.7-1.6,2.6-2.4c0.1-0.1,0.1-0.1,0.2-0.2c0.1,0.1,0.2,0.1,0.3,0.2
		c1.6,1.3,2.9,2.9,4.3,4.4C28.9,24.3,28.7,24.5,28.5,24.7z"/>
</g>
</svg>
