<?xml version="1.0" encoding="utf-8"?>
<!-- Generator: Adobe Illustrator 24.1.2, SVG Export Plug-In . SVG Version: 6.00 Build 0)  -->
<svg version="1.1" id="Layer_1" xmlns="http://www.w3.org/2000/svg" xmlns:xlink="http://www.w3.org/1999/xlink" x="0px" y="0px"
	 viewBox="0 0 48 48" style="enable-background:new 0 0 48 48;" xml:space="preserve">
<style type="text/css">
	.st0{fill:#FFFFFF;}
</style>
<g>
	<g>
		<path class="st0" d="M30.7,11.8c-0.3-0.1-0.5-0.2-0.7-0.2c-2.3-1.1-4.6-1.1-7-0.4c-1.6,0.4-3.1,0.8-4.7,1.2
			c-2.1,0.5-3.9,1.5-5.3,3.2c-1.8,2.2-2.9,4.7-3.2,7.5c-0.2,2.4,0.4,4.7,1.6,6.8c0.7,1.2,1.5,2.3,2.2,3.4c0.1,0.1,0.1,0.3,0.2,0.5
			c-0.3,0-0.5,0-0.8,0c0,0.1-0.1,0.1-0.1,0.2c1.4,1.8,3.2,3.1,5.3,4c2.1,1,4.3,1.3,6.7,1.4c-0.4,0.2-0.7,0.5-1.1,0.6
			c-1.2,0.5-2.3,1-3.5,1.3c-1.3,0.4-2.3,0-3.3-1c-0.7-0.8-1.7-1.4-2.6-2c-0.1-0.1-0.2-0.2-0.4-0.2c-3.9-1.6-5.3-4.8-5.6-8.7
			c-0.3-3.2,0-6.4,0.5-9.6c0.2-1,0.7-1.8,1.4-2.6c0.7-0.8,1.4-1.7,1.9-2.6c0.6-1.3,1.5-2.2,2.7-2.9c2.5-1.4,5-2.6,7.8-3.3
			c3.1-0.7,5.9,0.4,7.6,3.1C30.5,11.4,30.5,11.5,30.7,11.8z"/>
		<path class="st0" d="M29.9,29.7c0.5,0.6,1,1.2,1.5,1.8c0,0,0,0,0,0.1c-0.7-0.5-1.3-1.1-2-1.6c-1-0.7-2-1.5-3.1-2.1
			c-1.4-0.8-2.8-0.8-4.2,0.1c-1.1,0.7-2.2,1.5-3.3,2.4c0.6,0.5,1,0.8,1.5,1.2c0,0,0,0.1-0.1,0.1c-0.5-0.3-1-0.6-1.6-1
			c-0.4,0.4-0.8,0.7-1.2,1.1c0,0-0.1-0.1-0.1-0.1c0.3-0.4,0.7-0.8,1-1.3c-3.3-3.7-3.5-7.5-0.6-11.5c-0.2-0.3-0.5-0.6-0.7-0.9
			c0,0,0.1-0.1,0.1-0.1c0.3,0.2,0.6,0.5,0.9,0.7c1.6-1.6,3.5-2.4,5.8-2.5c2.2,0,4.2,0.8,5.8,2.3c0.4-0.4,0.8-0.8,1.3-1.2
			c0,0,0.1,0.1,0.1,0.1c-0.4,0.4-0.7,0.9-1.1,1.3c1.2,1.3,1.9,2.9,2.1,4.6c0.2,2.1-0.2,4-1.6,5.7c0.1-0.3,0.2-0.5,0.3-0.8
			c1.2-2.7,0.7-5.9-1.3-8.1c-0.1-0.1-0.3-0.2-0.6-0.5c-0.6,1.1-1.3,2.1-1.8,3.2c-0.3,0.7-0.4,1.6-0.2,2.3
			C27.3,27.1,28.5,28.5,29.9,29.7z M19,20.1c-2.7,2.4-2.9,7.6-0.3,9.8C22.4,25.7,22.2,23.7,19,20.1z M19.4,19.7c3.2,3,7,2.8,9.1-0.3
			C25.7,17.3,21.6,17.4,19.4,19.7z"/>
		<path class="st0" d="M35.3,16.8c1.9,1.4,3.1,3.3,3.3,5.6c0.2,3,0.1,6.1-1.6,8.8c-0.3,0.4-0.6,0.8-0.9,1.2c-0.1,0-0.2-0.1-0.3-0.1
			c0.1-0.3,0.1-0.7,0.3-0.9c2.5-4.8,1.9-9.4-0.7-14c-0.1-0.2-0.2-0.3-0.3-0.5C35.2,16.9,35.2,16.9,35.3,16.8z"/>
		<path class="st0" d="M33.8,36c-0.5,1.3-1.2,2.4-2.3,3.1c-1.2,0.9-2.5,0.4-3.8,0.5C28.1,38.3,32,35.9,33.8,36z"/>
		<path class="st0" d="M10.9,10.4C9.6,9.2,8.4,8,7.2,6.8C7.1,6.8,7,6.9,7,7c1.2,1.2,2.5,2.4,3.7,3.7C10.7,10.6,10.8,10.5,10.9,10.4z
			"/>
		<path class="st0" d="M37.7,10.6c1.3-1.2,2.5-2.5,3.8-3.7c-0.1-0.1-0.1-0.1-0.2-0.2c-1.2,1.3-2.5,2.5-3.7,3.8
			C37.6,10.5,37.6,10.6,37.7,10.6z"/>
		<path class="st0" d="M37.6,37.4c1.3,1.3,2.5,2.5,3.8,3.8c0,0,0.1-0.1,0.1-0.1c-1.3-1.3-2.5-2.5-3.8-3.8
			C37.7,37.3,37.6,37.4,37.6,37.4z"/>
		<path class="st0" d="M10.8,37.4c-1.2,1.2-2.5,2.4-3.7,3.7c0,0,0.1,0.1,0.1,0.1c1.2-1.2,2.5-2.4,3.7-3.7
			C10.9,37.5,10.9,37.5,10.8,37.4z"/>
	</g>
</g>
</svg>
