<?xml version="1.0" encoding="utf-8"?>
<!-- Generator: Adobe Illustrator 23.0.0, SVG Export Plug-In . SVG Version: 6.00 Build 0)  -->
<svg version="1.1" id="Calque_1" xmlns="http://www.w3.org/2000/svg" xmlns:xlink="http://www.w3.org/1999/xlink" x="0px" y="0px"
	 viewBox="0 0 588.4 589.1" style="enable-background:new 0 0 588.4 589.1;" xml:space="preserve">
<style type="text/css">
	.st0{fill:#FBB700;}
</style>
<g>
	<path class="st0" d="M432.5,359.2h-40.7c-6.6,0-12-5.4-12-12s5.4-12,12-12h40.7c10.1,0,20-4.1,27.2-11.3l71.3-71.7H302.6
		c-6.6,0-12-5.4-12-12s5.4-12,12-12h285.9L476.7,340.8C465.1,352.5,449,359.2,432.5,359.2z"/>
	<path class="st0" d="M228.3,589.1V391.8c0-6.6,5.4-12,12-12s12,5.4,12,12v139.8l71.7-71.3c7.2-7.1,11.3-17,11.3-27.2V302.6
		c0-6.6,5.4-12,12-12s12,5.4,12,12v130.5c0,16.5-6.7,32.5-18.4,44.1L228.3,589.1z"/>
	<path class="st0" d="M284.8,359.2H0l111.8-112.5c11.6-11.7,27.7-18.4,44.1-18.4h39.7c6.6,0,12,5.4,12,12s-5.4,12-12,12h-39.7
		c-10.1,0-20,4.1-27.2,11.3l-71.3,71.7h227.4c6.6,0,12,5.4,12,12S291.4,359.2,284.8,359.2z"/>
	<path class="st0" d="M240.2,296.8c-6.6,0-12-5.4-12-12V156c0-16.4,6.7-32.5,18.4-44.1L359.1,0.1v195.6c0,6.6-5.4,12-12,12
		s-12-5.4-12-12V57.5l-71.7,71.3c-7.2,7.1-11.3,17.1-11.3,27.2v128.9C252.2,291.5,246.8,296.8,240.2,296.8z"/>
</g>
</svg>
