<?xml version="1.0" encoding="utf-8"?>
<!-- Generator: Adobe Illustrator 24.1.2, SVG Export Plug-In . SVG Version: 6.00 Build 0)  -->
<svg version="1.1" id="Layer_1" xmlns="http://www.w3.org/2000/svg" xmlns:xlink="http://www.w3.org/1999/xlink" x="0px" y="0px"
	 viewBox="0 0 48 48" style="enable-background:new 0 0 48 48;" xml:space="preserve">
<style type="text/css">
	.st0{fill:#FFFFFF;}
</style>
<g>
	<g>
		<path class="st0" d="M36.1,31.8c1.3-2.2,2-4.4,2.1-6.7c0.1-2.4-0.3-4.6-1.4-6.8c1.3,0.6,3.7,3.1,4.1,4.4c0.2,0.6,0.2,1.4,0,1.9
			c-0.8,1.7-1.1,3.4-1.2,5.2c-0.2,2.8-1.7,4.7-3.9,6.1c-2.9,1.9-6.1,3.1-9.5,3.8c-0.6,0.1-1.2,0.3-1.7,0.3c-0.6,0-1.3,0-1.8-0.2
			c-1.4-0.6-2.8-0.8-4.3-1c-0.8-0.1-1.6-0.4-2.2-0.8c-2.5-1.8-4.8-3.8-6.6-6.3c-2-2.8-1.9-5.9,0.4-8.8c0,1-0.1,1.8,0,2.6
			c0.2,2,1.1,3.6,2.4,5.1c0.7,0.9,1.4,1.7,2,2.7c1.8,3.2,4.7,4.8,8.3,5.1c6.1,0.5,10.9-2.7,13-8.5c0.1-0.2,0.2-0.4,0.3-0.6
			c0.1,0,0.2,0,0.3,0C36.2,30.1,36.1,30.9,36.1,31.8z M11.3,31.1c-0.1,0-0.2,0.1-0.2,0.1c0,1.5,1,2.7,2.6,2.9
			C12.9,33.1,12.1,32.1,11.3,31.1z"/>
		<path class="st0" d="M26.3,19.4c0,0.6,0,1.1,0,1.7c0,0.6,0.2,0.8,0.8,0.8c1,0,2.1,0,3.1,0c1.2,0,1.2,0,1.2,1.3c0,0.7,0,1.4,0,2.1
			c0,0.6-0.2,0.8-0.8,0.8c-1.2,0-2.3,0-3.5,0c-0.6,0-0.9,0.2-0.9,0.8c0,1.1,0,2.3,0,3.4c0,0.6-0.2,0.9-0.9,0.9c-0.8,0-1.7,0-2.5,0
			c-0.6,0-0.8-0.2-0.8-0.8c0-1.1,0-2.2,0-3.4c0-1-0.1-1-1-1c-1.1,0-2.2,0-3.3,0c-0.7,0-0.9-0.2-0.9-0.9c0-0.8,0-1.6,0-2.4
			c0-0.7,0.3-0.9,0.9-0.9c1.1,0,2.1,0,3.2,0c1,0,1.1,0,1.1-1c0-1.1,0-2.2,0-3.3c0-0.6,0.3-0.9,0.9-0.8c0.8,0,1.6,0,2.4,0
			c0.6,0,0.9,0.3,0.8,0.9C26.3,18.2,26.3,18.8,26.3,19.4z"/>
		<path class="st0" d="M28.1,10.7c-6.2-1.7-12.5,0.8-15.3,8.8c-0.3-1.3,0-2.5,0.3-3.8c-1.1,1.1-1.7,2.5-2.3,3.9
			c-0.3-0.6-0.4-2,0-3.2c1.3-4,4-6.7,8.4-7.1c2.5-0.2,5-0.1,7.5,0.7c0.3,0.1,0.7,0.3,1,0.4C27.8,10.5,27.9,10.6,28.1,10.7z"/>
		<path class="st0" d="M32.8,11.6c1.5,0,2.9,1.2,3,2.7C34.5,13.7,33.6,12.7,32.8,11.6z"/>
		<path class="st0" d="M7,22.5c-0.4-0.7-0.2-2.7,0.2-3.1c0.3-0.3,0.6-0.2,0.6,0.1c0.1,0.5,0.2,1,0.1,1.5C7.7,21.5,7.3,21.9,7,22.5z"
			/>
		<path class="st0" d="M41,7.1c-1.2,1.2-2.5,2.5-3.7,3.7c0.1,0.1,0.1,0.1,0.2,0.2c1.2-1.2,2.5-2.5,3.7-3.7C41.2,7.3,41.1,7.2,41,7.1
			z"/>
		<path class="st0" d="M37.3,37.2c1.2,1.2,2.5,2.5,3.7,3.7c0.1-0.1,0.1-0.1,0.2-0.2c-1.2-1.2-2.5-2.5-3.7-3.7
			C37.5,37.1,37.4,37.1,37.3,37.2z"/>
		<path class="st0" d="M7.3,7.2c1.2,1.2,2.4,2.4,3.6,3.6c0.1-0.1,0.1-0.1,0.2-0.2C9.9,9.5,8.7,8.3,7.5,7.1C7.5,7.1,7.4,7.2,7.3,7.2z
			"/>
		<path class="st0" d="M7.5,40.9c1.2-1.2,2.4-2.4,3.6-3.6c-0.1-0.1-0.1-0.1-0.2-0.2c-1.2,1.2-2.4,2.4-3.6,3.6
			C7.4,40.8,7.4,40.9,7.5,40.9z"/>
	</g>
</g>
</svg>
