<?xml version="1.0" encoding="utf-8"?>
<!-- Generator: Adobe Illustrator 23.0.0, SVG Export Plug-In . SVG Version: 6.00 Build 0)  -->
<svg version="1.1" id="Layer_1" xmlns="http://www.w3.org/2000/svg" xmlns:xlink="http://www.w3.org/1999/xlink" x="0px" y="0px"
	 viewBox="0 0 2520 2520" style="enable-background:new 0 0 2520 2520;" xml:space="preserve">
<path d="M0,0v2520h2520V0H0z M1973,1524.7c0,14.6-1.9,29.4-5.1,43.6c-17.7,80.2-88.9,136.8-173.9,137.5
	c-81.4,0.7-162.8,0.1-244.2,0.2c-22.5,0-22.5,0.1-22.5,22.3c0,70.2,0.2,140.4-0.2,210.5c-0.2,29.3-27.9,44-52.8,28.7
	c-4.2-2.6-8-5.6-11.9-8.5c-107.3-80.5-214.4-161.3-322.1-241.2c-8.8-6.5-21.4-10.5-32.4-11.1c-30.9-1.5-61.8-0.6-92.8-0.6
	c-93.3,0-186.6-0.2-280,0.2c-36,0.1-70.3-6-101-25.8c-59.1-38.1-87.3-92.7-87.2-163.2c0.4-184.4,0.1-368.8,0.1-553.3
	c0-78.9,0.6-157.8-0.1-236.6c-1-104.3,87.6-184.1,183-182.3c176.3,3.4,352.7,1,529,1c0,0,0,0.1,0,0.1c181.2,0,362.4-0.1,543.7,0.2
	c12.9,0,26.1,1.5,38.5,5c79.8,22.4,131.8,90.4,131.9,173.6C1973.4,991.6,1973.3,1258.2,1973,1524.7z"/>
</svg>
