<?xml version="1.0" encoding="utf-8"?>
<!-- Generator: Adobe Illustrator 24.1.3, SVG Export Plug-In . SVG Version: 6.00 Build 0)  -->
<svg version="1.1" id="Calque_1" xmlns="http://www.w3.org/2000/svg" xmlns:xlink="http://www.w3.org/1999/xlink" x="0px" y="0px"
	 viewBox="0 0 756.92 711.75" style="enable-background:new 0 0 756.92 711.75;" xml:space="preserve">
<g>
	<path d="M516.75,420.49h-40.74c-6.6,0-11.95-5.35-11.95-11.95s5.35-11.95,11.95-11.95h40.74c10.13,0,20.04-4.12,27.18-11.31
		l71.29-71.74H386.82c-6.6,0-11.95-5.35-11.95-11.95s5.35-11.95,11.95-11.95h285.85L560.89,402.13
		C549.29,413.8,533.2,420.49,516.75,420.49z"/>
	<path d="M312.52,650.37V453.14c0-6.6,5.35-11.95,11.95-11.95s11.95,5.35,11.95,11.95v139.79l71.74-71.29
		c7.19-7.14,11.31-17.05,11.31-27.18V363.95c0-6.6,5.35-11.95,11.95-11.95c6.6,0,11.95,5.35,11.95,11.95v130.51
		c0,16.45-6.69,32.53-18.36,44.13L312.52,650.37z"/>
	<path d="M369.07,420.49H84.25l111.78-112.48c11.6-11.67,27.68-18.36,44.13-18.36h39.71c6.6,0,11.95,5.35,11.95,11.95
		s-5.35,11.95-11.95,11.95h-39.71c-10.13,0-20.04,4.12-27.18,11.31l-71.29,71.74h227.38c6.6,0,11.95,5.35,11.95,11.95
		S375.67,420.49,369.07,420.49z"/>
	<path d="M324.47,358.14c-6.6,0-11.95-5.35-11.95-11.95V217.29c0-16.45,6.69-32.53,18.36-44.13L443.37,61.37V257
		c0,6.6-5.35,11.95-11.95,11.95c-6.6,0-11.95-5.35-11.95-11.95V118.81l-71.74,71.3c-7.19,7.14-11.31,17.05-11.31,27.18v128.91
		C336.42,352.79,331.07,358.14,324.47,358.14z"/>
</g>
</svg>
